<svg version="1.1" id="Layer_1" xmlns="http://www.w3.org/2000/svg" xmlns:xlink="http://www.w3.org/1999/xlink" x="0px" y="0px"
	 width="100%" viewBox="0 0 413 122" enable-background="new 0 0 413 122" xml:space="preserve">
<path fill="none" opacity="1.000000" stroke="none" 
	d="
M414.000000,102.000000 
	C414.000000,108.992722 414.000000,115.985443 414.000000,123.000000 
	C280.979095,123.000000 147.958206,123.000000 14.468954,122.657043 
	C13.651243,121.536522 13.301893,120.758965 12.969680,119.515724 
	C13.210225,112.713417 13.433634,106.376793 13.657042,100.040169 
	C20.448719,111.470253 27.100704,115.270401 37.227951,113.042770 
	C45.999660,111.113304 50.218548,103.962769 50.330421,90.222618 
	C52.297585,90.309418 54.240242,90.395134 56.199177,90.481567 
	C55.319481,102.665604 60.325443,111.762802 69.060051,112.808289 
	C73.565430,113.347549 78.706116,112.603645 82.891891,110.847595 
	C89.212646,108.195885 91.225273,101.891098 92.239456,94.342545 
	C93.297089,97.586044 93.990105,99.711357 94.969658,102.715424 
	C96.304016,101.060013 97.624893,100.140137 97.894325,98.976746 
	C100.836327,86.273666 102.870926,73.448372 100.962769,60.380989 
	C99.813835,52.512928 97.502022,44.874485 90.871513,39.867393 
	C87.685783,37.461651 87.499756,34.907978 87.891052,31.673027 
	C89.314560,19.904232 79.448860,3.121528 62.066246,1.667627 
	C62.011768,1.449501 62.000000,1.000000 62.000000,1.000000 
	C179.333344,1.000000 296.666687,1.000000 414.000000,1.000000 
	C414.000000,16.095684 414.000000,31.079184 413.687317,46.121601 
	C408.686523,46.180519 403.998413,46.180519 399.280823,46.180519 
	C399.141327,47.982792 399.022217,49.522133 398.879883,51.360977 
	C388.143921,40.344124 371.245941,42.551834 361.942566,51.520176 
	C350.836334,62.226433 349.741638,81.029533 359.431213,93.412361 
	C364.069489,99.339867 370.229523,102.740547 377.559357,103.775047 
	C385.706116,104.924835 392.815430,102.300056 398.916656,96.268845 
	C399.082977,98.600769 399.208435,100.359581 399.325470,102.000000 
	C404.456451,102.000000 409.228241,102.000000 414.000000,102.000000 
M179.044128,100.115028 
	C178.987244,96.402962 178.930344,92.690887 178.931503,88.371094 
	C178.615387,88.224007 178.299286,88.076927 177.073395,87.695602 
	C167.509598,87.695602 157.945816,87.695602 148.222366,87.695602 
	C148.222366,84.360596 148.231354,81.870132 148.220917,79.379753 
	C148.143585,60.918732 148.062408,42.457726 148.043091,23.389933 
	C147.697311,23.268528 147.351532,23.147123 146.097412,22.823568 
	C142.063278,22.891256 138.029144,22.958944 133.396179,22.958563 
	C133.277328,23.302818 133.158463,23.647074 132.834427,24.910061 
	C132.903748,50.275978 132.973083,75.641899 132.984070,101.674698 
	C133.336212,101.832664 133.688370,101.990623 134.943085,102.402260 
	C149.284027,102.317802 163.624969,102.233353 178.600998,102.210419 
	C178.691818,101.815948 178.782623,101.421478 179.044128,100.115028 
M183.495148,45.737320 
	C183.326340,45.810215 183.157516,45.883114 182.154251,46.265980 
	C182.121536,58.201290 181.861603,70.141533 182.120697,82.070503 
	C182.374084,93.735641 189.265900,102.351761 199.398102,103.858978 
	C207.272720,105.030373 214.506256,103.359314 220.327728,96.678978 
	C220.589554,98.524765 220.764038,99.754845 220.888306,101.672684 
	C221.272278,101.825783 221.656250,101.978874 222.920258,102.407089 
	C226.599930,102.322701 230.279602,102.238312 234.627060,102.217834 
	C234.741364,101.814407 234.855667,101.410980 235.182022,100.090286 
	C235.111343,82.391426 235.040665,64.692558 235.022797,46.349598 
	C234.672745,46.200577 234.322678,46.051559 233.085266,45.648357 
	C229.398361,45.733070 225.711456,45.817787 221.350815,45.850800 
	C221.213394,46.239651 221.075958,46.628502 220.689697,47.923759 
	C220.740707,58.268654 220.791718,68.613548 220.572845,79.395088 
	C220.590225,79.565315 220.607590,79.735535 220.193558,80.446907 
	C219.543869,82.129280 219.093597,83.926994 218.201584,85.469208 
	C216.517395,88.381058 208.139160,92.462845 206.005859,91.388550 
	C201.229523,88.983253 196.834839,86.145538 196.689224,79.043587 
	C196.688736,69.237251 196.748642,59.430073 196.612473,49.625618 
	C196.595154,48.378151 195.553055,47.144913 194.101944,45.650009 
	C190.741592,45.734776 187.381256,45.819542 183.495148,45.737320 
M346.366333,64.086647 
	C345.753876,56.289551 342.552887,49.920673 335.301636,46.514072 
	C325.427734,41.875336 316.380829,44.126442 307.878815,51.669807 
	C307.878815,41.598011 307.878815,32.333530 307.878815,22.998804 
	C302.975952,22.998804 298.384979,22.998804 293.553162,22.998804 
	C293.553162,49.420067 293.553162,75.638855 293.553162,102.154663 
	C298.378754,102.154663 303.104370,102.154663 308.084503,102.154663 
	C308.084503,91.965225 308.049042,81.990685 308.094818,72.016502 
	C308.137329,62.756626 312.831512,57.480690 320.860321,57.539040 
	C328.184509,57.592278 331.897583,62.292698 331.955444,71.586601 
	C332.016541,81.399338 332.076630,91.212067 332.085876,101.662392 
	C332.405182,101.826057 332.724518,101.989723 333.928864,102.409561 
	C337.611176,102.316803 341.293518,102.224045 345.875763,102.157669 
	C345.988464,89.742485 346.101135,77.327293 346.366333,64.086647 
M261.112274,65.369759 
	C260.184296,63.795303 258.123993,61.625683 258.571533,60.774261 
	C259.419830,59.160332 261.564575,57.668278 263.422516,57.253647 
	C268.241425,56.178249 271.632721,58.961632 274.501068,62.735870 
	C278.560577,60.403069 282.508453,58.134430 286.531769,55.822437 
	C276.385406,43.528988 263.687866,40.392353 251.972702,46.938641 
	C246.062073,50.241428 243.128647,55.361031 243.156967,62.058811 
	C243.184311,68.521225 246.398666,73.241432 252.183029,75.829407 
	C256.401093,77.716599 261.084778,78.571465 265.280182,80.497910 
	C268.043091,81.766579 272.177704,83.929337 272.393799,86.031418 
	C272.806641,90.047646 268.106476,90.162598 265.026337,91.044952 
	C264.340332,91.241478 263.353729,90.976501 262.698395,90.593735 
	C259.314148,88.617050 255.992599,86.532982 251.990112,84.082947 
	C250.453110,84.946922 247.842636,86.395103 245.250641,87.875633 
	C240.923019,90.347511 240.764664,91.430527 244.110016,95.362946 
	C250.720337,103.133339 263.151611,105.992401 274.412750,102.496887 
	C282.836029,99.882240 287.358643,93.771324 287.805969,86.155945 
	C288.276550,78.145767 284.367340,73.761261 274.586884,70.352165 
	C270.286865,68.853340 266.011719,67.283096 261.112274,65.369759 
z"/>
<path fill="#FFFFFF" opacity="1.000000" stroke="none" 
	d="
M62.120728,1.885754 
	C79.448860,3.121528 89.314560,19.904232 87.891052,31.673027 
	C87.499756,34.907978 87.685783,37.461651 90.871513,39.867393 
	C97.502022,44.874485 99.813835,52.512928 100.962769,60.380989 
	C102.870926,73.448372 100.836327,86.273666 97.894325,98.976746 
	C97.624893,100.140137 96.304016,101.060013 94.969658,102.715424 
	C93.990105,99.711357 93.297089,97.586044 92.239456,94.342545 
	C91.225273,101.891098 89.212646,108.195885 82.891891,110.847595 
	C78.706116,112.603645 73.565430,113.347549 69.060051,112.808289 
	C60.325443,111.762802 55.319481,102.665604 56.199177,90.481567 
	C54.240242,90.395134 52.297585,90.309418 50.330421,90.222618 
	C50.218548,103.962769 45.999660,111.113304 37.227951,113.042770 
	C27.100704,115.270401 20.448719,111.470253 13.657042,100.040169 
	C13.433634,106.376793 13.210225,112.713417 12.592104,119.558823 
	C10.174203,115.686256 7.671060,111.455269 6.240401,106.888306 
	C4.098044,100.049446 2.709279,92.974525 1.000000,86.000000 
	C1.000000,79.312355 1.000000,72.624710 1.360002,65.306488 
	C4.081478,48.672615 12.083551,36.633705 26.545967,29.015867 
	C27.807716,28.351261 29.159773,26.869593 29.463762,25.537786 
	C31.256918,17.681881 34.836918,11.067045 41.970005,6.942653 
	C45.833656,4.708665 49.980762,2.964904 54.000000,1.000000 
	C54.000000,1.000000 54.500000,1.000000 54.923931,1.378746 
	C57.605484,1.800247 59.863106,1.843000 62.120728,1.885754 
M27.112789,78.947784 
	C34.762405,76.608604 41.157162,78.810249 46.677608,84.299400 
	C48.658596,86.269157 57.873020,87.177513 59.454472,85.156235 
	C63.566311,79.900833 69.180847,78.212837 74.691017,77.870476 
	C71.663040,69.957497 68.690636,62.189766 65.458214,53.742508 
	C57.012058,58.294529 48.053169,62.664192 39.599419,67.856316 
	C34.765312,70.825325 30.753319,75.132896 27.112789,78.947784 
M61.796986,92.480690 
	C59.716980,98.211472 62.291424,103.322517 66.338860,106.066139 
	C69.338821,108.099739 74.912468,108.262978 78.553757,106.997711 
	C84.897141,104.793541 87.036209,99.582268 85.998535,93.525299 
	C85.099472,88.277397 80.746254,84.138962 75.195168,83.254944 
	C70.130478,82.448387 64.851791,85.838188 61.796986,92.480690 
M38.493103,84.783043 
	C32.483864,82.435455 27.277725,83.371849 23.536554,87.473175 
	C20.030420,91.316818 19.324495,96.557899 21.662897,101.383949 
	C24.108751,106.431747 28.482775,108.753128 34.905346,107.980751 
	C39.977970,107.370735 43.062065,104.040062 44.624763,99.416672 
	C46.384132,94.211411 44.372669,89.262474 38.493103,84.783043 
z"/>
<path fill="#FFFFFF" opacity="1.000000" stroke="none" 
	d="
M414.000000,101.531342 
	C409.228241,102.000000 404.456451,102.000000 399.325470,102.000000 
	C399.208435,100.359581 399.082977,98.600769 398.916656,96.268845 
	C392.815430,102.300056 385.706116,104.924835 377.559357,103.775047 
	C370.229523,102.740547 364.069489,99.339867 359.431213,93.412361 
	C349.741638,81.029533 350.836334,62.226433 361.942566,51.520176 
	C371.245941,42.551834 388.143921,40.344124 398.879883,51.360977 
	C399.022217,49.522133 399.141327,47.982792 399.280823,46.180519 
	C403.998413,46.180519 408.686523,46.180519 413.687317,46.590260 
	C414.000000,65.020897 414.000000,83.041786 414.000000,101.531342 
M380.063202,57.953075 
	C379.116486,58.241783 378.126740,58.433979 377.229767,58.834206 
	C368.702576,62.639126 365.264740,72.836723 369.515503,81.629318 
	C373.211975,89.275398 382.827911,92.400536 390.632935,88.492393 
	C397.758514,84.924454 401.107452,76.787018 398.824890,68.586838 
	C396.738678,61.091839 390.171722,57.153687 380.063202,57.953075 
z"/>
<path fill="none" opacity="1.000000" stroke="none" 
	d="
M53.531342,1.000000 
	C49.980762,2.964904 45.833656,4.708665 41.970005,6.942653 
	C34.836918,11.067045 31.256918,17.681881 29.463762,25.537786 
	C29.159773,26.869593 27.807716,28.351261 26.545967,29.015867 
	C12.083551,36.633705 4.081478,48.672615 1.360002,64.837959 
	C1.000000,43.746746 1.000000,22.493490 1.000000,1.000000 
	C18.353489,1.000000 35.708088,1.000000 53.531342,1.000000 
z"/>
<path fill="none" opacity="1.000000" stroke="none" 
	d="
M1.000000,86.468658 
	C2.709279,92.974525 4.098044,100.049446 6.240401,106.888306 
	C7.671060,111.455269 10.174203,115.686256 12.574966,120.024506 
	C13.301893,120.758965 13.651243,121.536522 14.000297,122.657043 
	C9.704950,123.000000 5.409900,123.000000 1.000000,123.000000 
	C1.000000,110.979309 1.000000,98.958313 1.000000,86.468658 
z"/>
<path fill="#FFFFFF" opacity="1.000000" stroke="none" 
	d="
M62.066246,1.667627 
	C59.863106,1.843000 57.605484,1.800247 55.173931,1.378746 
	C57.041668,1.000000 59.083332,1.000000 61.562500,1.000000 
	C62.000000,1.000000 62.011768,1.449501 62.066246,1.667627 
z"/>
<path fill="#FFFFFF" opacity="1.000000" stroke="none" 
	d="
M344.975830,102.131287 
	C341.293518,102.224045 337.611176,102.316803 333.389709,102.050789 
	C332.708344,101.367386 332.470551,101.144981 332.137146,101.024803 
	C332.076630,91.212067 332.016541,81.399338 331.955444,71.586601 
	C331.897583,62.292698 328.184509,57.592278 320.860321,57.539040 
	C312.831512,57.480690 308.137329,62.756626 308.094818,72.016502 
	C308.049042,81.990685 308.084503,91.965225 308.084503,102.154663 
	C303.104370,102.154663 298.378754,102.154663 293.553162,102.154663 
	C293.553162,75.638855 293.553162,49.420067 293.553162,22.998804 
	C298.384979,22.998804 302.975952,22.998804 307.878815,22.998804 
	C307.878815,32.333530 307.878815,41.598011 307.878815,51.669807 
	C316.380829,44.126442 325.427734,41.875336 335.301636,46.514072 
	C342.552887,49.920673 345.753876,56.289551 345.951660,64.766449 
	C345.360016,67.069115 345.038177,68.691208 345.029633,70.314957 
	C344.973846,80.920204 344.985931,91.525803 344.975830,102.131287 
z"/>
<path fill="#FFFFFF" opacity="1.000000" stroke="none" 
	d="
M220.938522,100.984924 
	C220.764038,99.754845 220.589554,98.524765 220.327728,96.678978 
	C214.506256,103.359314 207.272720,105.030373 199.398102,103.858978 
	C189.265900,102.351761 182.374084,93.735641 182.120697,82.070503 
	C181.861603,70.141533 182.121536,58.201290 182.676224,46.279594 
	C183.472427,46.163578 183.746674,46.033943 184.020905,45.904305 
	C187.381256,45.819542 190.741592,45.734776 194.539948,46.252438 
	C194.984344,56.320400 194.919724,65.787041 195.066986,75.250381 
	C195.091568,76.830223 196.037048,78.395737 196.556992,79.967873 
	C196.834839,86.145538 201.229523,88.983253 206.005859,91.388550 
	C208.139160,92.462845 216.517395,88.381058 218.201584,85.469208 
	C219.093597,83.926994 219.543869,82.129280 220.610672,80.113785 
	C221.142715,79.705009 221.257629,79.629349 221.372559,79.553688 
	C221.195953,79.355270 221.019348,79.156853 220.842728,78.958443 
	C220.791718,68.613548 220.740707,58.268654 221.057556,47.353676 
	C221.625122,46.489899 221.824829,46.196198 222.024551,45.902504 
	C225.711456,45.817787 229.398361,45.733070 233.632751,46.010406 
	C234.443497,46.579529 234.706741,46.786610 234.969986,46.993690 
	C235.040665,64.692558 235.111343,82.391426 234.841370,100.671707 
	C234.320251,101.553391 234.139755,101.853653 233.959274,102.153915 
	C230.279602,102.238312 226.599930,102.322701 222.362854,102.020081 
	C221.516479,101.417030 221.227509,101.200981 220.938522,100.984924 
z"/>
<path fill="#FFFFFF" opacity="1.000000" stroke="none" 
	d="
M261.418762,65.557518 
	C266.011719,67.283096 270.286865,68.853340 274.586884,70.352165 
	C284.367340,73.761261 288.276550,78.145767 287.805969,86.155945 
	C287.358643,93.771324 282.836029,99.882240 274.412750,102.496887 
	C263.151611,105.992401 250.720337,103.133339 244.110016,95.362946 
	C240.764664,91.430527 240.923019,90.347511 245.250641,87.875633 
	C247.842636,86.395103 250.453110,84.946922 251.990112,84.082947 
	C255.992599,86.532982 259.314148,88.617050 262.698395,90.593735 
	C263.353729,90.976501 264.340332,91.241478 265.026337,91.044952 
	C268.106476,90.162598 272.806641,90.047646 272.393799,86.031418 
	C272.177704,83.929337 268.043091,81.766579 265.280182,80.497910 
	C261.084778,78.571465 256.401093,77.716599 252.183029,75.829407 
	C246.398666,73.241432 243.184311,68.521225 243.156967,62.058811 
	C243.128647,55.361031 246.062073,50.241428 251.972702,46.938641 
	C263.687866,40.392353 276.385406,43.528988 286.531769,55.822437 
	C282.508453,58.134430 278.560577,60.403069 274.501068,62.735870 
	C271.632721,58.961632 268.241425,56.178249 263.422516,57.253647 
	C261.564575,57.668278 259.419830,59.160332 258.571533,60.774261 
	C258.123993,61.625683 260.184296,63.795303 261.418762,65.557518 
z"/>
<path fill="#FFFFFF" opacity="1.000000" stroke="none" 
	d="
M133.995010,23.026632 
	C138.029144,22.958944 142.063278,22.891256 146.650726,23.143103 
	C147.399399,23.734062 147.658859,23.912086 147.982422,23.996714 
	C148.062408,42.457726 148.143585,60.918732 148.220917,79.379753 
	C148.231354,81.870132 148.222366,84.360596 148.222366,87.695602 
	C157.945816,87.695602 167.509598,87.695602 177.620270,88.032471 
	C178.319992,88.668190 178.555435,88.871353 178.873444,88.978821 
	C178.930344,92.690887 178.987244,96.402962 178.744751,100.698547 
	C178.219162,101.534279 178.059341,101.823227 177.965912,102.148895 
	C163.624969,102.233353 149.284027,102.317802 134.385605,102.035599 
	C133.566223,101.448555 133.304321,101.228180 133.042404,101.007812 
	C132.973083,75.641899 132.903748,50.275978 133.152618,24.353157 
	C133.737976,23.602665 133.912704,23.346123 133.995010,23.026632 
z"/>
<path fill="#FFFFFF" opacity="1.000000" stroke="none" 
	d="
M345.425781,102.144478 
	C344.985931,91.525803 344.973846,80.920204 345.029633,70.314957 
	C345.038177,68.691208 345.360016,67.069115 345.875397,65.179184 
	C346.101135,77.327293 345.988464,89.742485 345.425781,102.144478 
z"/>
<path fill="#FFFFFF" opacity="1.000000" stroke="none" 
	d="
M196.623108,79.505730 
	C196.037048,78.395737 195.091568,76.830223 195.066986,75.250381 
	C194.919724,65.787041 194.984344,56.320400 194.981842,46.379974 
	C195.553055,47.144913 196.595154,48.378151 196.612473,49.625618 
	C196.748642,59.430073 196.688736,69.237251 196.623108,79.505730 
z"/>
<path fill="#FFFFFF" opacity="1.000000" stroke="none" 
	d="
M332.111511,101.343597 
	C332.470551,101.144981 332.708344,101.367386 332.947174,101.922707 
	C332.724518,101.989723 332.405182,101.826057 332.111511,101.343597 
z"/>
<path fill="#FFFFFF" opacity="1.000000" stroke="none" 
	d="
M221.687683,45.876648 
	C221.824829,46.196198 221.625122,46.489899 221.181961,46.900475 
	C221.075958,46.628502 221.213394,46.239651 221.687683,45.876648 
z"/>
<path fill="#FFFFFF" opacity="1.000000" stroke="none" 
	d="
M234.293167,102.185875 
	C234.139755,101.853653 234.320251,101.553391 234.735352,101.130341 
	C234.855667,101.410980 234.741364,101.814407 234.293167,102.185875 
z"/>
<path fill="#FFFFFF" opacity="1.000000" stroke="none" 
	d="
M220.913422,101.328804 
	C221.227509,101.200981 221.516479,101.417030 221.922836,101.882523 
	C221.656250,101.978874 221.272278,101.825783 220.913422,101.328804 
z"/>
<path fill="#FFFFFF" opacity="1.000000" stroke="none" 
	d="
M178.283447,102.179657 
	C178.059341,101.823227 178.219162,101.534279 178.659393,101.154533 
	C178.782623,101.421478 178.691818,101.815948 178.283447,102.179657 
z"/>
<path fill="#FFFFFF" opacity="1.000000" stroke="none" 
	d="
M133.013245,101.341248 
	C133.304321,101.228180 133.566223,101.448555 133.934326,101.908752 
	C133.688370,101.990623 133.336212,101.832664 133.013245,101.341248 
z"/>
<path fill="#FFFFFF" opacity="1.000000" stroke="none" 
	d="
M178.902466,88.674957 
	C178.555435,88.871353 178.319992,88.668190 178.075165,88.149597 
	C178.299286,88.076927 178.615387,88.224007 178.902466,88.674957 
z"/>
<path fill="#FFFFFF" opacity="1.000000" stroke="none" 
	d="
M220.707794,79.176765 
	C221.019348,79.156853 221.195953,79.355270 221.372559,79.553688 
	C221.257629,79.629349 221.142715,79.705009 220.826385,79.843201 
	C220.607590,79.735535 220.590225,79.565315 220.707794,79.176765 
z"/>
<path fill="#FFFFFF" opacity="1.000000" stroke="none" 
	d="
M133.695587,22.992598 
	C133.912704,23.346123 133.737976,23.602665 133.255219,23.893791 
	C133.158463,23.647074 133.277328,23.302818 133.695587,22.992598 
z"/>
<path fill="#FFFFFF" opacity="1.000000" stroke="none" 
	d="
M148.012756,23.693323 
	C147.658859,23.912086 147.399399,23.734062 147.104889,23.244179 
	C147.351532,23.147123 147.697311,23.268528 148.012756,23.693323 
z"/>
<path fill="#FFFFFF" opacity="1.000000" stroke="none" 
	d="
M183.758026,45.820816 
	C183.746674,46.033943 183.472427,46.163578 183.093445,46.124611 
	C183.157516,45.883114 183.326340,45.810215 183.758026,45.820816 
z"/>
<path fill="#FFFFFF" opacity="1.000000" stroke="none" 
	d="
M234.996399,46.671642 
	C234.706741,46.786610 234.443497,46.579529 234.076431,46.137497 
	C234.322678,46.051559 234.672745,46.200577 234.996399,46.671642 
z"/>
<path fill="none" opacity="1.000000" stroke="none" 
	d="
M26.741983,78.892792 
	C30.753319,75.132896 34.765312,70.825325 39.599419,67.856316 
	C48.053169,62.664192 57.012058,58.294529 65.458214,53.742508 
	C68.690636,62.189766 71.663040,69.957497 74.691017,77.870476 
	C69.180847,78.212837 63.566311,79.900833 59.454472,85.156235 
	C57.873020,87.177513 48.658596,86.269157 46.677608,84.299400 
	C41.157162,78.810249 34.762405,76.608604 26.741983,78.892792 
z"/>
<path fill="none" opacity="1.000000" stroke="none" 
	d="
M61.898819,92.104355 
	C64.851791,85.838188 70.130478,82.448387 75.195168,83.254944 
	C80.746254,84.138962 85.099472,88.277397 85.998535,93.525299 
	C87.036209,99.582268 84.897141,104.793541 78.553757,106.997711 
	C74.912468,108.262978 69.338821,108.099739 66.338860,106.066139 
	C62.291424,103.322517 59.716980,98.211472 61.898819,92.104355 
z"/>
<path fill="none" opacity="1.000000" stroke="none" 
	d="
M38.841248,84.934402 
	C44.372669,89.262474 46.384132,94.211411 44.624763,99.416672 
	C43.062065,104.040062 39.977970,107.370735 34.905346,107.980751 
	C28.482775,108.753128 24.108751,106.431747 21.662897,101.383949 
	C19.324495,96.557899 20.030420,91.316818 23.536554,87.473175 
	C27.277725,83.371849 32.483864,82.435455 38.841248,84.934402 
z"/>
<path fill="none" opacity="1.000000" stroke="none" 
	d="
M380.491943,57.901432 
	C390.171722,57.153687 396.738678,61.091839 398.824890,68.586838 
	C401.107452,76.787018 397.758514,84.924454 390.632935,88.492393 
	C382.827911,92.400536 373.211975,89.275398 369.515503,81.629318 
	C365.264740,72.836723 368.702576,62.639126 377.229767,58.834206 
	C378.126740,58.433979 379.116486,58.241783 380.491943,57.901432 
z"/>
</svg>